<svg xmlns="http://www.w3.org/2000/svg" viewBox="0 0 16 16" fill="none" shape-rendering="crispEdges" width="512" height="512">
  <style>
    .eye-left, .eye-right {
      animation: blink 3s infinite;
      transform-origin: center; /* Keep the scaling centered */
    }

    @keyframes blink {
      0%, 90% {
        transform: scaleY(1); /* Eyes open */
      }
      92%, 98% {
        transform: scaleY(0.1); /* Eyes closed */
      }
    }
  </style>
  <g>
    <!-- Body -->
    <path d="M4 2h8v1h1v3h1v2h-1v3h-1v1H9v1h4v1h1v2H2v-2h1v-1h4v-1H4v-1H3V8H2V6h1V3h1V2Z" fill="#cb9e6e"/>
    <path d="M4 2h8v1h1v3h1v2h-1v3h-1v1H4v-1H3V8H2V6h1V3h1V2Z" fill="#fff" fill-opacity=".1"/>
    <path d="M4 13h2v1h1v1h2v-1h1v-1h2v1h1v2H3v-2h1v-1Z" fill="#44c585"/>
    
    <!-- Right Eye -->
    <g class="eye-right">
      <rect x="9" y="5" width="3" height="3" fill="#fff" /> <!-- Right Eye White -->
      <rect x="10" y="6" width="1" height="1" fill="#000" /> <!-- Right Eye Pupil -->
    </g>
    
    <!-- Left Eye -->
    <g class="eye-left">
      <rect x="4" y="5" width="3" height="3" fill="#fff" /> <!-- Left Eye White -->
      <rect x="5" y="6" width="1" height="1" fill="#000" /> <!-- Left Eye Pupil -->
    </g>

    <!-- Spiky Hair -->
    <polygon points="4,2 5,1 6,2" fill="#00ff22" /> <!-- Left Spike -->
    <polygon points="6,2 7,1 8,2" fill="#00ff22" /> <!-- Middle Spike -->
    <polygon points="8,2 9,1 10,2" fill="#00ff22" /> <!-- Middle Spike -->
    <polygon points="10,2 11,1 12,2" fill="#00ff22" /> <!-- Right Spike -->

    <!-- Mouth -->
    <path d="M6 9v1h1v1h2v-1h1V9H6Z" fill="#e35d6a"/>
  </g>
</svg>
